# xmcd
#
# Track frame offsets: 
#        150
#        17012
#        35412
#        52692
#        68637
#        87462
#        107265
#        127280
#        141527
#        156795
#
# Disc length: 2293 seconds
#
# Revision: 1
# Processed by: cddbd v1.5.2PL0 Copyright (c) Steve Scherf et al.
# Submitted via: ExactAudioCopyFreeDBPlugin 1.0
#
DISCID=8108f30a
DTITLE=Jim Photoglo - Fool In Love With You
DYEAR=1981
DGENRE=Pop
TTITLE0=Fool In Love With You
TTITLE1=Tonight Will Last Forever
TTITLE2=More To Love
TTITLE3=Won't Let You Do It To Me
TTITLE4=Ruled By My Heart
TTITLE5=Angelina
TTITLE6=I Can't Let Go Of You
TTITLE7=Run To Me
TTITLE8=Try It Again
TTITLE9=There's Always Another Chance Left For Love
EXTD=
EXTT0=
EXTT1=
EXTT2=
EXTT3=
EXTT4=
EXTT5=
EXTT6=
EXTT7=
EXTT8=
EXTT9=
PLAYORDER=
